<mxfile host="app.diagrams.net" modified="2023-08-22T20:05:09.717Z" agent="Mozilla/5.0 (Macintosh; Intel Mac OS X 10_15_7) AppleWebKit/605.1.15 (KHTML, like Gecko) Version/16.3 Safari/605.1.15" etag="B1IXGnAcn9emS1Cjts0k" version="21.6.9">
  <diagram name="Use Case Карточки для изучения новых слов" id="apgA-LMTBxEZSLMbM4Xx">
    <mxGraphModel dx="949" dy="560" grid="1" gridSize="10" guides="1" tooltips="1" connect="1" arrows="1" fold="1" page="1" pageScale="1" pageWidth="827" pageHeight="1169" math="0" shadow="0">
      <root>
        <mxCell id="0" />
        <mxCell id="1" parent="0" />
        <mxCell id="Qm9IGnLxvQ-JBUYM_pZn-9" value="" style="rounded=0;whiteSpace=wrap;html=1;" parent="1" vertex="1">
          <mxGeometry x="240" y="10" width="510" height="560" as="geometry" />
        </mxCell>
        <mxCell id="_y7jfVD2SZD-210KUxd8-1" value="Преподаватель&lt;br&gt;" style="shape=umlActor;verticalLabelPosition=bottom;verticalAlign=top;html=1;" parent="1" vertex="1">
          <mxGeometry x="30" y="140" width="30" height="60" as="geometry" />
        </mxCell>
        <mxCell id="_y7jfVD2SZD-210KUxd8-2" value="Ученик" style="shape=umlActor;verticalLabelPosition=bottom;verticalAlign=top;html=1;" parent="1" vertex="1">
          <mxGeometry x="30" y="310" width="30" height="60" as="geometry" />
        </mxCell>
        <mxCell id="_y7jfVD2SZD-210KUxd8-8" value="" style="endArrow=block;endSize=16;endFill=0;html=1;rounded=0;exitX=0.5;exitY=0;exitDx=0;exitDy=0;exitPerimeter=0;" parent="1" source="_y7jfVD2SZD-210KUxd8-2" target="_y7jfVD2SZD-210KUxd8-10" edge="1">
          <mxGeometry width="160" relative="1" as="geometry">
            <mxPoint x="330" y="290" as="sourcePoint" />
            <mxPoint x="150" y="230" as="targetPoint" />
          </mxGeometry>
        </mxCell>
        <mxCell id="_y7jfVD2SZD-210KUxd8-10" value="Пользователь&lt;br&gt;" style="shape=umlActor;verticalLabelPosition=bottom;verticalAlign=top;html=1;" parent="1" vertex="1">
          <mxGeometry x="160" y="210" width="30" height="60" as="geometry" />
        </mxCell>
        <mxCell id="_y7jfVD2SZD-210KUxd8-16" value="Создать слово-карточку из словаря" style="ellipse;whiteSpace=wrap;html=1;" parent="1" vertex="1">
          <mxGeometry x="360" y="80" width="130" height="60" as="geometry" />
        </mxCell>
        <mxCell id="_y7jfVD2SZD-210KUxd8-17" value="Добавить слово- карточку из своего словаря" style="ellipse;whiteSpace=wrap;html=1;" parent="1" vertex="1">
          <mxGeometry x="330" y="170" width="120" height="60" as="geometry" />
        </mxCell>
        <mxCell id="_y7jfVD2SZD-210KUxd8-18" value="Удалить слово-карточку" style="ellipse;whiteSpace=wrap;html=1;" parent="1" vertex="1">
          <mxGeometry x="294" y="480" width="120" height="50" as="geometry" />
        </mxCell>
        <mxCell id="_y7jfVD2SZD-210KUxd8-19" value="Действия с карточками" style="ellipse;whiteSpace=wrap;html=1;" parent="1" vertex="1">
          <mxGeometry x="310" y="365" width="140" height="70" as="geometry" />
        </mxCell>
        <mxCell id="_y7jfVD2SZD-210KUxd8-20" value="Добавить перевод с танскрипцией" style="ellipse;whiteSpace=wrap;html=1;" parent="1" vertex="1">
          <mxGeometry x="510" y="50" width="120" height="40" as="geometry" />
        </mxCell>
        <mxCell id="_y7jfVD2SZD-210KUxd8-23" value="&amp;lt;&amp;lt;include&amp;gt;&amp;gt;" style="html=1;verticalAlign=bottom;labelBackgroundColor=none;endArrow=open;endFill=0;dashed=1;rounded=0;entryX=0;entryY=0.5;entryDx=0;entryDy=0;exitX=1;exitY=0;exitDx=0;exitDy=0;" parent="1" source="_y7jfVD2SZD-210KUxd8-16" target="_y7jfVD2SZD-210KUxd8-20" edge="1">
          <mxGeometry x="-0.7573" y="8" width="160" relative="1" as="geometry">
            <mxPoint x="380" y="320" as="sourcePoint" />
            <mxPoint x="540" y="320" as="targetPoint" />
            <mxPoint as="offset" />
          </mxGeometry>
        </mxCell>
        <mxCell id="_y7jfVD2SZD-210KUxd8-32" value="" style="endArrow=none;startArrow=none;endFill=0;startFill=0;endSize=8;html=1;verticalAlign=bottom;labelBackgroundColor=none;strokeWidth=3;rounded=0;exitX=0.75;exitY=0.1;exitDx=0;exitDy=0;exitPerimeter=0;entryX=0;entryY=0.5;entryDx=0;entryDy=0;" parent="1" source="_y7jfVD2SZD-210KUxd8-10" target="_y7jfVD2SZD-210KUxd8-16" edge="1">
          <mxGeometry width="160" relative="1" as="geometry">
            <mxPoint x="180" y="210" as="sourcePoint" />
            <mxPoint x="340" y="220" as="targetPoint" />
          </mxGeometry>
        </mxCell>
        <mxCell id="_y7jfVD2SZD-210KUxd8-39" style="edgeStyle=none;rounded=0;orthogonalLoop=1;jettySize=auto;html=1;exitX=0.5;exitY=0;exitDx=0;exitDy=0;" parent="1" edge="1">
          <mxGeometry relative="1" as="geometry">
            <mxPoint x="310" y="10" as="sourcePoint" />
            <mxPoint x="310" y="10" as="targetPoint" />
          </mxGeometry>
        </mxCell>
        <mxCell id="_y7jfVD2SZD-210KUxd8-40" value="" style="endArrow=none;startArrow=none;endFill=0;startFill=0;endSize=8;html=1;verticalAlign=bottom;labelBackgroundColor=none;strokeWidth=3;rounded=0;entryX=0;entryY=0.5;entryDx=0;entryDy=0;" parent="1" target="_y7jfVD2SZD-210KUxd8-17" edge="1">
          <mxGeometry width="160" relative="1" as="geometry">
            <mxPoint x="190" y="230" as="sourcePoint" />
            <mxPoint x="340" y="270" as="targetPoint" />
          </mxGeometry>
        </mxCell>
        <mxCell id="_y7jfVD2SZD-210KUxd8-43" value="Отметить статус слова (вспомнил/не вспомнил)" style="ellipse;whiteSpace=wrap;html=1;" parent="1" vertex="1">
          <mxGeometry x="550" y="320" width="110" height="50" as="geometry" />
        </mxCell>
        <mxCell id="_y7jfVD2SZD-210KUxd8-44" value="&amp;lt;&amp;lt;include&amp;gt;&amp;gt;" style="html=1;verticalAlign=bottom;labelBackgroundColor=none;endArrow=open;endFill=0;dashed=1;rounded=0;entryX=0;entryY=0.5;entryDx=0;entryDy=0;exitX=1;exitY=0.5;exitDx=0;exitDy=0;" parent="1" source="Qm9IGnLxvQ-JBUYM_pZn-8" target="_y7jfVD2SZD-210KUxd8-43" edge="1">
          <mxGeometry x="0.3029" y="7" width="160" relative="1" as="geometry">
            <mxPoint x="640" y="380" as="sourcePoint" />
            <mxPoint x="499" y="260" as="targetPoint" />
            <Array as="points" />
            <mxPoint as="offset" />
          </mxGeometry>
        </mxCell>
        <mxCell id="_y7jfVD2SZD-210KUxd8-45" value="Показать перевод с транскрипцией" style="ellipse;whiteSpace=wrap;html=1;" parent="1" vertex="1">
          <mxGeometry x="610" y="230" width="110" height="50" as="geometry" />
        </mxCell>
        <mxCell id="_y7jfVD2SZD-210KUxd8-46" value="&amp;lt;&amp;lt;include&amp;gt;&amp;gt;" style="html=1;verticalAlign=bottom;labelBackgroundColor=none;endArrow=open;endFill=0;dashed=1;rounded=0;exitX=0.5;exitY=0;exitDx=0;exitDy=0;" parent="1" source="_y7jfVD2SZD-210KUxd8-43" target="_y7jfVD2SZD-210KUxd8-45" edge="1">
          <mxGeometry x="-0.0188" y="-1" width="160" relative="1" as="geometry">
            <mxPoint x="610" y="290" as="sourcePoint" />
            <mxPoint x="460" y="255" as="targetPoint" />
            <Array as="points" />
            <mxPoint as="offset" />
          </mxGeometry>
        </mxCell>
        <mxCell id="_y7jfVD2SZD-210KUxd8-47" value="Показать&amp;nbsp;картинку" style="ellipse;whiteSpace=wrap;html=1;" parent="1" vertex="1">
          <mxGeometry x="480" y="200" width="110" height="40" as="geometry" />
        </mxCell>
        <mxCell id="_y7jfVD2SZD-210KUxd8-48" value="&amp;lt;&amp;lt;extend&amp;gt;&amp;gt;" style="html=1;verticalAlign=bottom;labelBackgroundColor=none;endArrow=open;endFill=0;dashed=1;rounded=0;entryX=1;entryY=0;entryDx=0;entryDy=0;" parent="1" source="_y7jfVD2SZD-210KUxd8-47" target="Qm9IGnLxvQ-JBUYM_pZn-8" edge="1">
          <mxGeometry width="160" relative="1" as="geometry">
            <mxPoint x="512" y="375.5" as="sourcePoint" />
            <mxPoint x="500" y="380" as="targetPoint" />
          </mxGeometry>
        </mxCell>
        <mxCell id="_y7jfVD2SZD-210KUxd8-52" value="&amp;lt;&amp;lt;extend&amp;gt;&amp;gt;" style="html=1;verticalAlign=bottom;labelBackgroundColor=none;endArrow=open;endFill=0;dashed=1;rounded=0;" parent="1" source="_y7jfVD2SZD-210KUxd8-18" target="_y7jfVD2SZD-210KUxd8-19" edge="1">
          <mxGeometry width="160" relative="1" as="geometry">
            <mxPoint x="497" y="439" as="sourcePoint" />
            <mxPoint x="416" y="338" as="targetPoint" />
          </mxGeometry>
        </mxCell>
        <mxCell id="_y7jfVD2SZD-210KUxd8-55" value="" style="endArrow=none;startArrow=none;endFill=0;startFill=0;endSize=8;html=1;verticalAlign=bottom;labelBackgroundColor=none;strokeWidth=3;rounded=0;exitX=1;exitY=1;exitDx=0;exitDy=0;exitPerimeter=0;entryX=0.229;entryY=0.1;entryDx=0;entryDy=0;entryPerimeter=0;" parent="1" source="_y7jfVD2SZD-210KUxd8-10" target="_y7jfVD2SZD-210KUxd8-19" edge="1">
          <mxGeometry width="160" relative="1" as="geometry">
            <mxPoint x="180" y="395" as="sourcePoint" />
            <mxPoint x="330" y="420" as="targetPoint" />
          </mxGeometry>
        </mxCell>
        <mxCell id="_y7jfVD2SZD-210KUxd8-61" value="" style="endArrow=block;endSize=16;endFill=0;html=1;rounded=0;exitX=1;exitY=0.3333333333333333;exitDx=0;exitDy=0;exitPerimeter=0;entryX=0.333;entryY=0.333;entryDx=0;entryDy=0;entryPerimeter=0;" parent="1" source="_y7jfVD2SZD-210KUxd8-1" target="_y7jfVD2SZD-210KUxd8-10" edge="1">
          <mxGeometry width="160" relative="1" as="geometry">
            <mxPoint x="55" y="320" as="sourcePoint" />
            <mxPoint x="170" y="258" as="targetPoint" />
          </mxGeometry>
        </mxCell>
        <mxCell id="Qm9IGnLxvQ-JBUYM_pZn-2" value="&amp;lt;&amp;lt;extend&amp;gt;&amp;gt;" style="html=1;verticalAlign=bottom;labelBackgroundColor=none;endArrow=open;endFill=0;dashed=1;rounded=0;entryX=1;entryY=1;entryDx=0;entryDy=0;" parent="1" source="Qm9IGnLxvQ-JBUYM_pZn-3" target="_y7jfVD2SZD-210KUxd8-19" edge="1">
          <mxGeometry width="160" relative="1" as="geometry">
            <mxPoint x="460" y="460" as="sourcePoint" />
            <mxPoint x="370" y="317" as="targetPoint" />
          </mxGeometry>
        </mxCell>
        <mxCell id="Qm9IGnLxvQ-JBUYM_pZn-3" value="Сменить язык" style="ellipse;whiteSpace=wrap;html=1;" parent="1" vertex="1">
          <mxGeometry x="414" y="460" width="120" height="50" as="geometry" />
        </mxCell>
        <mxCell id="Qm9IGnLxvQ-JBUYM_pZn-7" value="" style="endArrow=none;startArrow=none;endFill=0;startFill=0;endSize=8;html=1;verticalAlign=bottom;labelBackgroundColor=none;strokeWidth=3;rounded=0;exitX=0.5;exitY=0.5;exitDx=0;exitDy=0;exitPerimeter=0;entryX=0;entryY=0;entryDx=0;entryDy=0;" parent="1" source="_y7jfVD2SZD-210KUxd8-10" target="Qm9IGnLxvQ-JBUYM_pZn-8" edge="1">
          <mxGeometry width="160" relative="1" as="geometry">
            <mxPoint x="200" y="240" as="sourcePoint" />
            <mxPoint x="420" y="340" as="targetPoint" />
          </mxGeometry>
        </mxCell>
        <mxCell id="Qm9IGnLxvQ-JBUYM_pZn-8" value="Проверить знания" style="ellipse;whiteSpace=wrap;html=1;" parent="1" vertex="1">
          <mxGeometry x="330" y="270" width="140" height="70" as="geometry" />
        </mxCell>
        <mxCell id="Qm9IGnLxvQ-JBUYM_pZn-10" value="Слова-карточки" style="text;html=1;align=center;verticalAlign=middle;resizable=0;points=[];autosize=1;strokeColor=none;fillColor=none;" parent="1" vertex="1">
          <mxGeometry x="250" y="20" width="120" height="30" as="geometry" />
        </mxCell>
      </root>
    </mxGraphModel>
  </diagram>
</mxfile>
